<?xml version="1.0" encoding="iso-8859-1"?>
<!-- Generator: Adobe Illustrator 21.0.0, SVG Export Plug-In . SVG Version: 6.00 Build 0)  -->
<svg xmlns="http://www.w3.org/2000/svg" xmlns:xlink="http://www.w3.org/1999/xlink" version="1.1" id="Capa_1" x="0px" y="0px" viewBox="0 0 512 512" style="enable-background:new 0 0 512 512;" xml:space="preserve" width="512" height="512">
<g>
	<path d="M128.772,352.493h297.461l26.86-105.323C487.583,233.315,512,199.529,512,160.144c0-51.69-42.053-93.742-93.742-93.742   c-44.547,0-81.933,31.236-91.415,72.955H95.9L66.999,30.209H0v29.955h43.943L114.071,325c-17.777,6.12-30.591,23.001-30.591,42.83   c0,24.974,20.318,45.292,45.292,45.292h16.406c-2.548,5.946-3.963,12.489-3.963,19.357c0,27.191,22.121,49.312,49.312,49.312   c27.191,0,49.312-22.121,49.312-49.312c0-6.868-1.415-13.41-3.963-19.357h72.547c-2.548,5.946-3.963,12.489-3.963,19.357   c0,27.191,22.121,49.312,49.312,49.312s49.312-22.121,49.312-49.312c0-6.868-1.415-13.41-3.963-19.357h30.685v-29.955H128.772   c-8.457,0-15.337-6.88-15.337-15.337C113.435,359.373,120.315,352.493,128.772,352.493z M209.883,432.478   c0,10.674-8.683,19.357-19.357,19.357c-10.673,0-19.356-8.683-19.356-19.357c0-10.674,8.683-19.357,19.356-19.357   C201.2,413.122,209.883,421.805,209.883,432.478z M373.128,432.478c0,10.674-8.683,19.357-19.357,19.357   c-10.674,0-19.357-8.683-19.357-19.357c0-10.674,8.683-19.357,19.357-19.357C364.445,413.122,373.128,421.805,373.128,432.478z    M418.258,96.357c35.172,0,63.787,28.615,63.787,63.787s-28.615,63.787-63.787,63.787s-63.787-28.615-63.787-63.787   S383.086,96.357,418.258,96.357z M324.965,169.312c2.081,21.335,11.341,40.597,25.33,55.33v70.705h29.955v-49.52   c11.624,5.176,24.484,8.059,38.008,8.059c0.741,0,1.479-0.011,2.216-0.028l-17.515,68.68H144.406l-40.573-153.226H324.965z"/>
	<rect x="166.384" y="201.413" width="29.955" height="93.934"/>
	<rect x="227.688" y="201.413" width="29.955" height="93.934"/>
	<rect x="288.992" y="201.413" width="29.955" height="93.934"/>
	<polygon points="403.28,201.607 433.236,201.607 433.236,175.045 459.798,175.045 459.798,145.09 433.236,145.09 433.236,118.528    403.28,118.528 403.28,145.09 376.718,145.09 376.718,175.045 403.28,175.045  "/>
</g>















</svg>
