<svg class="logo__main" viewBox="-9 0 478 478.35228" xmlns="http://www.w3.org/2000/svg"><path d="m418.148438 7.433594-12.527344 13.367187-.121094-.722656c-1.871094-11.578125-11.875-20.0859375-23.605469-20.078125-1.34375 0-2.679687.113281-4 .34375-6.289062 1.042969-11.902343 4.546875-15.605469 9.734375-3.703124 5.1875-5.1875 11.636719-4.132812 17.921875l5.976562 35.832031-22.304687 22.257813v-22.089844c0-13.253906-10.742187-24-24-24-13.253906 0-24 10.746094-24 24v43.601562l-59.253906-43.601562c-2.820313-2.078125-6.667969-2.078125-9.488281 0l-24 17.6875c-2.359376 1.671875-3.632813 4.492188-3.328126 7.367188.304688 2.875 2.136719 5.363281 4.792969 6.507812s5.726563.761719 8.023438-.996094l19.253906-14.230468 64 47.199218v4.175782l-43.023437 30.6875c-13.492188-5.21875-28.445313-5.21875-41.933594 0l-43.042969-30.734376v-4.167968l25.601563-18.863282c2.410156-1.65625 3.726562-4.492187 3.433593-7.398437s-2.148437-5.425781-4.839843-6.5625c-2.691407-1.140625-5.789063-.722656-8.082032 1.089844l-16.113281 11.863281v-43.625c0-13.253906-10.742187-24-24-24-13.253906 0-24 10.746094-24 24v22.078125l-22.304687-22.292969 5.976562-35.832031c2.007812-12.992187-6.808594-25.175781-19.773438-27.335937-12.964843-2.160157-25.253906 6.507812-27.570312 19.445312l-.117188.738281-12.898437-13.761719c-9.496094-9.0625-24.4375-9.0625-33.933594 0-9.265625 9.261719-9.386719 24.242188-.28125 33.65625l45.9375 48.28125 13.597657 13.597657c3.140624 3.035156 8.128906 2.988281 11.214843-.09375 3.085938-3.085938 3.128907-8.078125.097657-11.214844l-13.464844-13.457031-45.933594-48.28125c-3.011719-3.148438-2.945312-8.128906.140625-11.199219 3.105469-2.929687 7.929687-3.007813 11.128906-.183594l34.847657 37.214844 5.449218-32.664063c.613282-3.851562 3.925782-6.6875 7.824219-6.703124.492187.003906.980469.050781 1.464844.144531 4.316406.769531 7.207031 4.867187 6.488281 9.191406l-7.320312 43.9375 55.429687 55.4375v-60.703125c0-4.417969 3.582031-8 8-8s8 3.582031 8 8v75.894531l52 37.121094c.386719.425781.816406.804687 1.289063 1.128906 1.371093 1.164063 2.296874 2.765625 2.625 4.535157.359374 2.089843-.136719 4.238281-1.375 5.960937-2.628907 3.53125-7.574219 4.355469-11.203126 1.863281l-20.292968-14.503906h-47.042969c-4.417969 0-8-3.582031-8-8s3.582031-8 8-8h20.679687l-42.207031-42.207031c-1.980469-2.207031-5.019531-3.136719-7.894531-2.417969-2.875.722656-5.117188 2.972656-5.828125 5.851562-.707031 2.878907.238281 5.914063 2.453125 7.886719l18.527344 18.527344-38.402344 28.320313c-2.074219 1.492187-3.308594 3.882812-3.328125 6.4375-.023437 117.824218 58.132813 228.054687 155.402344 294.546874 1.332031.929688 2.917969 1.421876 4.542969 1.40625 1.683593.003907 3.332031-.503906 4.71875-1.457031 73.929687-50.597656 126.101562-127.175781 146.128906-214.496093h1.207031c4.417969 0 8-3.582032 8-8-.023437-3.558594-2.429687-6.65625-5.871094-7.566407.511719-2.792969.855469-5.601562 1.296875-8.433593h4.574219c4.417969 0 8-3.582032 8-8 0-4.417969-3.582031-8-8-8h-2.335937c1.527343-13.277344 2.308593-26.632813 2.335937-40-.011719-2.527344-1.21875-4.898438-3.253906-6.398438l-38.402344-28.320312 58.9375-58.925782 45.375-47.722656c9.371094-9.371094 9.371094-24.5625 0-33.933594-9.609375-9.304687-24.910156-9.152344-34.335937.335938zm-260.320313 223.765625v6.402343c-9.582031-1.980468-18.113281-7.386718-24-15.203124h24zm213.546875-8.800781h-5.546875c-4.417969 0-8 3.582031-8 8 0 4.417968 3.582031 8 8 8h3.203125c-.441406 2.664062-.800781 5.355468-1.296875 8h-9.90625c-4.417969 0-8 3.582031-8 8 0 4.417968 3.582031 8 8 8h6.402344c-19.339844 80.167968-67.089844 150.605468-134.402344 198.25-89.191406-63.042969-142.746094-165.03125-144-274.25l16.800781-12.398438c2.734375 10.582031 12.269532 17.984375 23.199219 18h32.074219c0 .175781-.074219.335938-.074219.519531v13.878907h-40c-3.027344 0-5.800781 1.714843-7.152344 4.425781-1.355469 2.707031-1.066406 5.953125.753907 8.375l9.601562 12.800781c9.210938 12.226562 23.007812 20.171875 38.207031 22.007812 4.652344 42.121094 22.261719 81.761719 50.398438 113.449219 5.128906 5.773438 12.480469 9.074219 20.203125 9.074219s15.078125-3.300781 20.207031-9.074219c12.199219-13.726562 22.503906-29.027343 30.628906-45.496093 1.28125-2.566407 1.09375-5.621094-.496093-8.007813-1.59375-2.386719-4.339844-3.742187-7.199219-3.546875-2.863281.191406-5.402344 1.902344-6.65625 4.480469-7.5 15.171875-17.003907 29.269531-28.253907 41.914062-2.136718 2.28125-5.121093 3.578125-8.246093 3.578125s-6.109375-1.296875-8.242188-3.578125c-25.117187-28.320312-41.132812-63.539062-45.96875-101.082031l46.214844 34.679688v20c0 4.417968 3.582031 8 8 8s8-3.582032 8-8v-24c0-2.515626-1.183594-4.886719-3.199219-6.398438l-60.648437-45.488281c0-1.105469-.152344-2.183594-.152344-3.289063v-33.75l.921875-.464844 9.101562 6.511719c7.898438 5.660157 18.429688 5.996094 26.675782.855469s12.578125-14.742188 10.972656-24.328125c-.261719-1.542969-.671875-3.058594-1.222656-4.527344 6.285156-1.464843 12.820312-1.464843 19.105468 0-.554687 1.472657-.964843 2.996094-1.226562 4.542969-1.59375 9.570312 2.730469 19.15625 10.960938 24.296875 8.226562 5.140625 18.738281 4.820313 26.640624-.808594l9.152344-6.535156.902344.457031v33.726563c.003906 18.015625-2.570312 35.9375-7.648438 53.226562-.609374 2.042969-.378906 4.246094.640626 6.121094 1.023437 1.871094 2.75 3.257813 4.800781 3.851563.734375.214843 1.492187.320312 2.257812.320312 3.546875 0 6.671875-2.34375 7.671875-5.75 3.3125-11.425781 5.617188-23.117188 6.894532-34.945312 15.195312-1.847657 28.984374-9.800782 38.199218-22.023438l9.601563-12.800781c1.816406-2.421875 2.109375-5.667969.753906-8.375-1.355469-2.710938-4.125-4.425781-7.15625-4.425781h-40v-13.871094c0-.175782-.054687-.335938-.070313-.503906h32.070313c10.914063-.039063 20.425781-7.433594 23.152344-18l16.847656 12.375c-.179687 12.035156-1 24.054687-2.453125 36zm-69.546875 8.800781v-8.800781h24c-5.882813 7.816406-14.417969 13.222656-24 15.203124zm139.203125-201.375-45.371094 47.71875-82.519531 82.457031h20.6875c4.417969 0 8 3.582031 8 8s-3.582031 8-8 8h-47.039063l-20.328124 14.519531c-3.625 2.425781-8.511719 1.605469-11.144532-1.871093-1.238281-1.726563-1.734375-3.875-1.375-5.96875.304688-1.617188 1.117188-3.097657 2.320313-4.222657.714843-.449219 1.355469-1.011719 1.894531-1.664062l51.671875-36.890625v-75.902344c0-4.417969 3.582031-8 8-8s8 3.582031 8 8v60.6875l55.433594-55.421875-7.320313-44c-.355468-2.089844.140625-4.234375 1.375-5.953125 1.882813-2.632812 5.164063-3.871094 8.316406-3.144531 3.152344.730469 5.550782 3.289062 6.085938 6.480469l5.445312 32.671874 34.488282-36.800781c1.5-1.558593 3.558594-2.449219 5.71875-2.46875 2.160156-.023437 4.242187.824219 5.769531 2.347657 1.511719 1.492187 2.359375 3.535156 2.34375 5.65625 0 2.179687-.886719 4.261718-2.453125 5.769531zm0 0"/><path d="m234.308594 415.761719c-.445313-.304688-.929688-.546875-1.4375-.722657-.453125-.230468-.941406-.390624-1.441406-.480468-2.632813-.496094-5.34375.308594-7.28125 2.160156-1.460938 1.535156-2.289063 3.5625-2.320313 5.679688.015625 1.046874.230469 2.078124.640625 3.042968s.976562 1.859375 1.679688 2.636719c.777343.707031 1.671874 1.277344 2.640624 1.683594 1.9375.851562 4.144532.851562 6.082032 0 .96875-.40625 1.859375-.976563 2.636718-1.683594.707032-.777344 1.273438-1.671875 1.679688-2.636719.410156-.964844.628906-1.996094.640625-3.042968-.027344-2.117188-.855469-4.144532-2.320313-5.679688-.378906-.34375-.78125-.664062-1.199218-.957031zm0 0"/><path d="m328.636719 278.902344c-4.136719-1.523438-8.730469.5625-10.304688 4.683594l-10.167969 27.140624c-8.804687 23.519532-21.679687 45.304688-38.03125 64.363282l-22.398437 26.109375c-1.988281 2.152343-2.640625 5.21875-1.703125 7.996093.941406 2.773438 3.320312 4.8125 6.207031 5.316407 2.886719.5 5.820313-.617188 7.640625-2.910157l22.398438-26.105468c17.566406-20.480469 31.398437-43.886719 40.863281-69.152344l10.175781-27.128906c.75-1.988282.675782-4.191406-.199218-6.125-.878907-1.933594-2.492188-3.441406-4.480469-4.1875zm0 0"/><path d="m189.523438 375.089844c-7.710938-9.015625-14.667969-18.648438-20.796876-28.800782-2.285156-3.78125-7.203124-4.996093-10.984374-2.714843-3.78125 2.285156-4.996094 7.203125-2.710938 10.984375 6.601562 10.917968 14.09375 21.273437 22.398438 30.960937l22.398437 26.105469c1.820313 2.292969 4.753906 3.410156 7.640625 2.910156s5.265625-2.542968 6.207031-5.316406c.9375-2.777344.285157-5.84375-1.703125-7.996094zm0 0"/><path d="m157.269531 326.398438c.011719-2.125-.824219-4.167969-2.320312-5.679688-3.175781-2.960938-8.101563-2.960938-11.28125 0-1.515625 1.503906-2.375 3.546875-2.398438 5.679688.007813 2.140624.871094 4.183593 2.398438 5.679687.738281.722656 1.605469 1.292969 2.5625 1.683594.949219.441406 1.988281.660156 3.039062.636719 1.074219.023437 2.140625-.195313 3.121094-.636719 2.992187-1.207031 4.933594-4.132813 4.878906-7.363281zm0 0"/><path d="m229.828125 206.398438c-4.417969 0-8 3.582031-8 8v32c0 4.417968 3.582031 8 8 8s8-3.582032 8-8v-32c0-4.417969-3.582031-8-8-8zm0 0"/></svg>